<?xml version="1.0" encoding="UTF-8"?><svg id="Calque_1" xmlns="http://www.w3.org/2000/svg" viewBox="0 0 48.79 93"><defs><style>.cls-1{fill:#767e90;}</style></defs><path class="cls-1" d="M17.53,17.58l.58-.32,1.32-11.65L11,2.55,2.57,5.6l1.32,11.65,.56,.32L11,2.65l6.53,14.93Zm-1.3,.73h-.94l-1.38-3.5h-5.84l-1.38,3.5h-.92l5.23,2.94,5.23-2.94ZM11,0l11,3.98-1.68,14.77-9.32,5.24L1.68,18.76,0,3.98,11,0Zm2.01,12.65l-2.01-4.91-2.01,4.91h4.02Z"/><path class="cls-1" d="M36.79,13.76c-.45,0-.89-.19-1.21-.52-.32-.33-.5-.78-.5-1.25s.18-.91,.5-1.25c.32-.33,.76-.52,1.21-.52s.89,.19,1.21,.52c.32,.33,.5,.78,.5,1.25s-.18,.91-.5,1.25c-.32,.33-.76,.52-1.21,.52Zm-.6,3.51c.2,.25,.4,.49,.6,.71,.2-.23,.4-.47,.6-.71-.4,0-.8,0-1.21,0Zm-2.28-.15c-.88-.09-1.75-.24-2.61-.43-.09,.41-.15,.81-.19,1.19-.22,1.86,.09,2.99,.55,3.26,.46,.27,1.56-.02,3.02-1.14,.3-.23,.6-.49,.91-.77-.59-.67-1.15-1.37-1.67-2.11Zm8.38-.43c-.82,.19-1.69,.33-2.61,.43-.52,.73-1.08,1.44-1.67,2.11,.3,.28,.61,.54,.91,.77,1.46,1.12,2.56,1.42,3.02,1.14,.46-.27,.76-1.4,.55-3.26-.05-.4-.11-.8-.19-1.19h0Zm1.66-.45c.66,3.1,.31,5.56-1.15,6.43-1.47,.87-3.72-.06-6-2.19-2.28,2.14-4.53,3.06-6,2.19-1.47-.87-1.81-3.33-1.15-6.43-2.94-.96-4.85-2.5-4.85-4.24s1.91-3.28,4.85-4.24c-.66-3.1-.31-5.56,1.15-6.43,1.47-.87,3.72,.06,6,2.19,2.28-2.14,4.53-3.06,6-2.19,1.47,.87,1.81,3.33,1.15,6.43,2.94,.96,4.85,2.5,4.85,4.24s-1.91,3.28-4.85,4.24h0Zm-8.37-11.48c-.29-.27-.59-.53-.91-.77-1.46-1.12-2.56-1.42-3.02-1.14-.46,.27-.76,1.4-.55,3.26,.05,.38,.11,.78,.19,1.19,.86-.19,1.73-.34,2.61-.43,.54-.77,1.1-1.47,1.67-2.11h0Zm4.1,2.11c.92,.1,1.79,.25,2.61,.43,.09-.41,.15-.81,.19-1.19,.22-1.86-.09-2.99-.55-3.26-.46-.27-1.56,.02-3.02,1.14-.31,.24-.62,.5-.91,.77,.57,.64,1.13,1.34,1.67,2.11Zm-2.28-.15c-.2-.25-.4-.49-.6-.71-.2,.23-.4,.47-.6,.71,.4,0,.8,0,1.21,0Zm-4.75,8.45c-.21-.35-.41-.71-.6-1.07-.11,.3-.21,.6-.3,.89,.29,.07,.6,.13,.9,.18h0Zm2.21,.27c1.29,.1,2.59,.1,3.88,0,.73-1.1,1.38-2.25,1.94-3.45-.56-1.2-1.21-2.35-1.94-3.45-1.29-.1-2.59-.1-3.88,0-.73,1.1-1.38,2.25-1.94,3.45,.56,1.2,1.21,2.35,1.94,3.45Zm6.69-5.55c.11-.3,.21-.6,.3-.89-.3-.07-.6-.13-.9-.18,.21,.35,.41,.71,.6,1.07Zm-11.46-.44c-.39,.13-.76,.27-1.1,.42-1.67,.74-2.48,1.57-2.48,2.12s.8,1.38,2.48,2.12c.35,.15,.71,.29,1.1,.42,.25-.82,.57-1.67,.94-2.54-.36-.83-.67-1.68-.94-2.54Zm1.66-.46c.09,.29,.19,.59,.3,.89,.19-.36,.39-.72,.6-1.07-.31,.05-.61,.11-.9,.18h0Zm11.76,5.53c.39-.13,.76-.27,1.1-.42,1.67-.74,2.48-1.57,2.48-2.12s-.8-1.38-2.48-2.12c-.36-.16-.73-.3-1.1-.42-.25,.82-.57,1.67-.94,2.54,.37,.87,.69,1.72,.94,2.54Zm-1.66,.46c-.09-.29-.19-.59-.3-.89-.19,.36-.39,.72-.6,1.07,.31-.05,.61-.11,.9-.18h0Z"/><path class="cls-1" d="M22.67,24c.74,0,1.33,.6,1.33,1.33v21.33c0,.74-.6,1.33-1.33,1.33H1.33c-.74,0-1.33-.6-1.33-1.33V25.33c0-.74,.6-1.33,1.33-1.33H22.67Zm-1.33,2.67H2.67v18.67H21.33V26.67Zm-2.67,2.67v13.33h-3.33v-10h-3.33v10H5.33v-13.33h13.33Z"/><path class="cls-1" d="M34.55,44.98l1.24-2.15c1.05,.44,2.19,.64,3.34,.57,1.14-.07,2.25-.41,3.24-.98,.99-.57,1.83-1.36,2.47-2.32,.63-.95,1.04-2.04,1.18-3.17h2.48c-.13,1.41-.57,2.78-1.28,4.01-.48,.84-1.09,1.6-1.79,2.26-.4-.12-.83-.16-1.25-.11-.42,.05-.82,.18-1.19,.39-.37,.21-.68,.49-.94,.83-.25,.34-.43,.73-.53,1.14-2.3,.7-4.78,.53-6.97-.47h0Zm-1.6-.93c-1.96-1.39-3.35-3.45-3.89-5.8,.6-.56,.97-1.36,.97-2.25s-.38-1.69-.98-2.25c.22-.94,.58-1.85,1.06-2.68,.71-1.23,1.67-2.29,2.83-3.11l1.24,2.15c-.91,.69-1.65,1.58-2.16,2.61-.51,1.02-.77,2.15-.77,3.29s.26,2.27,.77,3.29c.51,1.02,1.25,1.92,2.16,2.61l-1.24,2.15h0Zm1.6-17.02c2.19-1,4.66-1.17,6.97-.48,.19,.8,.69,1.53,1.46,1.97,.77,.44,1.65,.52,2.44,.28,1.75,1.65,2.85,3.88,3.07,6.27h-2.48c-.14-1.13-.54-2.22-1.18-3.17-.63-.95-1.48-1.74-2.47-2.31-.99-.57-2.1-.91-3.24-.98-1.14-.07-2.28,.12-3.33,.57l-1.24-2.15Zm9.05,.43c-.21-.12-.4-.28-.55-.47-.15-.19-.26-.41-.32-.65-.06-.24-.08-.48-.05-.72,.03-.24,.11-.48,.23-.69,.12-.21,.28-.4,.48-.54,.19-.15,.42-.26,.65-.32,.24-.06,.48-.08,.72-.04,.24,.03,.47,.11,.69,.24,.42,.25,.73,.65,.85,1.12,.12,.47,.06,.98-.19,1.4-.24,.42-.65,.73-1.12,.86-.47,.13-.97,.06-1.4-.18Zm-14.8,8.55c0,.49-.19,.96-.54,1.31-.35,.35-.82,.54-1.31,.54s-.96-.19-1.31-.54c-.35-.35-.54-.82-.54-1.31s.19-.96,.54-1.31c.35-.35,.82-.54,1.31-.54s.96,.2,1.31,.54c.35,.35,.54,.82,.54,1.31Zm14.8,8.55c.21-.12,.44-.2,.69-.24,.24-.03,.49-.02,.72,.04,.24,.06,.46,.17,.65,.32,.19,.15,.36,.33,.48,.54,.12,.21,.2,.44,.23,.69,.03,.24,.01,.49-.05,.72-.06,.24-.17,.46-.32,.65s-.34,.35-.55,.47c-.42,.24-.93,.31-1.4,.18-.47-.13-.87-.44-1.12-.86-.24-.42-.31-.93-.19-1.4,.12-.47,.43-.88,.85-1.12Z"/><path class="cls-1" d="M12,48c6.63,0,12,5.37,12,12s-5.37,12-12,12S0,66.63,0,60s5.37-12,12-12Zm0,2.4c-2.55,0-4.99,1.01-6.79,2.81-1.8,1.8-2.81,4.24-2.81,6.79s1.01,4.99,2.81,6.79c1.8,1.8,4.24,2.81,6.79,2.81s4.99-1.01,6.79-2.81c1.8-1.8,2.81-4.24,2.81-6.79s-1.01-4.99-2.81-6.79c-1.8-1.8-4.24-2.81-6.79-2.81Zm0,3.6c1.26,0,2.49,.4,3.52,1.14,1.02,.74,1.79,1.79,2.18,2.99,.39,1.2,.4,2.49,.02,3.7-.38,1.2-1.14,2.25-2.15,3-1.02,.75-2.24,1.16-3.51,1.17-1.26,.01-2.5-.38-3.53-1.11-1.03-.73-1.8-1.77-2.21-2.96-.41-1.2-.42-2.49-.05-3.7,.28,.63,.77,1.14,1.38,1.45,.61,.31,1.31,.4,1.99,.26,.67-.14,1.27-.51,1.7-1.05s.67-1.2,.66-1.89c0-.58-.17-1.14-.48-1.63-.31-.49-.76-.87-1.29-1.11,.56-.17,1.15-.26,1.77-.26Z"/><path class="cls-1" d="M34.47,66.29h4.63c.15-1.37,.85-2.51,1.99-3.75,.13-.14,.95-.99,1.05-1.11,.81-1.01,1.31-2.22,1.46-3.51,.15-1.28-.07-2.58-.63-3.75-.56-1.16-1.44-2.15-2.53-2.84-1.09-.69-2.36-1.05-3.65-1.05-1.29,0-2.56,.36-3.65,1.05-1.09,.69-1.97,1.67-2.53,2.83-.56,1.16-.78,2.46-.63,3.75,.15,1.28,.65,2.5,1.46,3.51,.1,.12,.92,.97,1.05,1.11,1.14,1.24,1.84,2.37,1.99,3.75Zm4.6,2.29h-4.57v1.14h4.57v-1.14Zm-9.42-5.71c-1.08-1.34-1.75-2.97-1.95-4.68-.2-1.71,.1-3.44,.84-5,.75-1.55,1.92-2.86,3.37-3.78,1.46-.92,3.15-1.4,4.87-1.4,1.72,0,3.41,.49,4.87,1.4,1.46,.92,2.63,2.23,3.37,3.78,.75,1.55,1.04,3.28,.84,5-.2,1.71-.87,3.33-1.95,4.68-.71,.88-2.56,2.28-2.56,4v2.86c0,.61-.24,1.19-.67,1.62-.43,.43-1.01,.67-1.62,.67h-4.57c-.61,0-1.19-.24-1.62-.67-.43-.43-.67-1.01-.67-1.62v-2.86c0-1.71-1.86-3.12-2.57-4Zm8.28-5.71h2.86l-5.14,6.86v-4.57h-2.86l5.14-6.86v4.58h0Z"/><path class="cls-1" d="M9.45,83l-2.78-2.32c-1.03,.36-2.17,.42-3.24,.15-1.07-.26-1.99-.83-2.62-1.6-.62-.77-.9-1.7-.8-2.62,.11-.92,.6-1.79,1.38-2.44,.79-.66,1.82-1.06,2.93-1.15,1.11-.09,2.22,.15,3.14,.67,.92,.52,1.6,1.29,1.92,2.18,.32,.89,.25,1.84-.18,2.7l2.78,2.32,7.65-6.38c.22-.19,.49-.33,.78-.43,.29-.1,.6-.15,.92-.15s.63,.05,.92,.15c.29,.1,.56,.25,.78,.43l.85,.71-14.67,12.23c.43,.85,.5,1.81,.18,2.7-.32,.89-.99,1.66-1.92,2.18-.92,.52-2.04,.75-3.14,.67-1.11-.09-2.15-.5-2.93-1.15-.79-.66-1.28-1.52-1.38-2.44-.11-.92,.18-1.85,.8-2.62,.62-.77,1.55-1.33,2.62-1.6,1.07-.26,2.21-.21,3.24,.15l2.78-2.32h0Zm-4.65-4c.64,0,1.25-.21,1.7-.59,.45-.38,.7-.88,.7-1.41s-.25-1.04-.7-1.41c-.45-.38-1.06-.59-1.7-.59s-1.25,.21-1.7,.59c-.45,.38-.7,.88-.7,1.41s.25,1.04,.7,1.41c.45,.38,1.06,.59,1.7,.59Zm0,12c.64,0,1.25-.21,1.7-.59,.45-.38,.7-.88,.7-1.41s-.25-1.04-.7-1.41c-.45-.38-1.06-.59-1.7-.59s-1.25,.21-1.7,.59c-.45,.38-.7,.88-.7,1.41s.25,1.04,.7,1.41c.45,.38,1.06,.59,1.7,.59Zm11.44-6.59l7.65,6.38-.85,.71c-.22,.19-.49,.33-.78,.43-.29,.1-.6,.15-.92,.15s-.63-.05-.92-.15c-.29-.1-.56-.25-.78-.43l-5.95-4.96,2.54-2.12h0Zm.56-2.41h2.4v2h-2.4v-2Zm4.8,0h2.4v2h-2.4v-2Zm-16.8,0h2.4v2h-2.4v-2ZM0,82H2.4v2H0v-2Z"/></svg>