<?xml version="1.0" encoding="utf-8"?>
<!-- Generator: Adobe Illustrator 27.0.1, SVG Export Plug-In . SVG Version: 6.00 Build 0)  -->
<svg version="1.1" id="Calque_1" xmlns="http://www.w3.org/2000/svg" xmlns:xlink="http://www.w3.org/1999/xlink" x="0px" y="0px"
	 viewBox="0 0 48.8 97" style="enable-background:new 0 0 48.8 97;" xml:space="preserve">
<style type="text/css">
	.st0{fill:#767E90;}
</style>
<path class="st0" d="M17.5,17.6l0.6-0.3l1.3-11.6L11,2.5l-8.4,3l1.3,11.6l0.6,0.3L11,2.7L17.5,17.6z M16.2,18.3h-0.9l-1.4-3.5H8.1
	l-1.4,3.5H5.8l5.2,2.9L16.2,18.3z M11,0l11,4l-1.7,14.8L11,24l-9.3-5.2L0,4L11,0z M13,12.6l-2-4.9l-2,4.9H13z"/>
<path class="st0" d="M36.8,12.8c-0.5,0-0.9-0.2-1.2-0.5s-0.5-0.8-0.5-1.2s0.2-0.9,0.5-1.2s0.8-0.5,1.2-0.5s0.9,0.2,1.2,0.5
	s0.5,0.8,0.5,1.2S38.3,12,38,12.3S37.2,12.8,36.8,12.8z M36.2,16.3c0.2,0.2,0.4,0.5,0.6,0.7c0.2-0.2,0.4-0.5,0.6-0.7
	C37,16.3,36.6,16.3,36.2,16.3L36.2,16.3z M33.9,16.1c-0.9-0.1-1.8-0.2-2.6-0.4c-0.1,0.4-0.1,0.8-0.2,1.2c-0.2,1.9,0.1,3,0.5,3.3
	c0.5,0.3,1.6,0,3-1.1c0.3-0.2,0.6-0.5,0.9-0.8C35,17.6,34.4,16.9,33.9,16.1L33.9,16.1z M42.3,15.7c-0.8,0.2-1.7,0.3-2.6,0.4
	c-0.5,0.7-1.1,1.4-1.7,2.1c0.3,0.3,0.6,0.5,0.9,0.8c1.5,1.1,2.6,1.4,3,1.1c0.5-0.3,0.8-1.4,0.5-3.3C42.4,16.5,42.4,16.1,42.3,15.7
	L42.3,15.7L42.3,15.7z M43.9,15.2c0.7,3.1,0.3,5.6-1.2,6.4c-1.5,0.9-3.7-0.1-6-2.2c-2.3,2.1-4.5,3.1-6,2.2s-1.8-3.3-1.1-6.4
	c-2.9-1-4.9-2.5-4.9-4.2s1.9-3.3,4.9-4.2c-0.7-3.1-0.3-5.6,1.1-6.4c1.5-0.9,3.7,0.1,6,2.2c2.3-2.1,4.5-3.1,6-2.2s1.8,3.3,1.2,6.4
	c2.9,1,4.8,2.5,4.8,4.2S46.9,14.3,43.9,15.2L43.9,15.2z M35.6,3.8C35.3,3.5,35,3.2,34.7,3c-1.5-1.1-2.6-1.4-3-1.1
	c-0.5,0.3-0.8,1.4-0.5,3.3c0,0.4,0.1,0.8,0.2,1.2C32.1,6.1,33,6,33.9,5.9C34.4,5.1,35,4.4,35.6,3.8L35.6,3.8L35.6,3.8z M39.7,5.9
	c0.9,0.1,1.8,0.2,2.6,0.4c0.1-0.4,0.2-0.8,0.2-1.2c0.2-1.9-0.1-3-0.5-3.3s-1.6,0-3,1.1c-0.3,0.2-0.6,0.5-0.9,0.8
	C38.6,4.4,39.1,5.1,39.7,5.9L39.7,5.9z M37.4,5.7C37.2,5.5,37,5.2,36.8,5c-0.2,0.2-0.4,0.5-0.6,0.7C36.6,5.7,37,5.7,37.4,5.7
	L37.4,5.7z M32.6,14.2c-0.2-0.4-0.4-0.7-0.6-1.1c-0.1,0.3-0.2,0.6-0.3,0.9C32,14.1,32.3,14.1,32.6,14.2L32.6,14.2z M34.9,14.4
	c1.3,0.1,2.6,0.1,3.9,0c0.7-1.1,1.4-2.2,1.9-3.4c-0.6-1.2-1.2-2.3-1.9-3.4c-1.3-0.1-2.6-0.1-3.9,0C34.2,8.7,33.5,9.8,33,11
	C33.5,12.2,34.1,13.3,34.9,14.4z M41.5,8.9c0.1-0.3,0.2-0.6,0.3-0.9c-0.3-0.1-0.6-0.1-0.9-0.2C41.1,8.2,41.3,8.5,41.5,8.9z
	 M30.1,8.4c-0.4,0.1-0.8,0.3-1.1,0.4c-1.7,0.7-2.5,1.6-2.5,2.1s0.8,1.4,2.5,2.1c0.4,0.1,0.7,0.3,1.1,0.4c0.2-0.8,0.6-1.7,0.9-2.5
	C30.7,10.2,30.4,9.3,30.1,8.4z M31.7,8c0.1,0.3,0.2,0.6,0.3,0.9c0.2-0.4,0.4-0.7,0.6-1.1C32.3,7.9,32,7.9,31.7,8L31.7,8z M43.5,13.5
	c0.4-0.1,0.8-0.3,1.1-0.4c1.7-0.7,2.5-1.6,2.5-2.1s-0.8-1.4-2.5-2.1c-0.4-0.2-0.7-0.3-1.1-0.4c-0.2,0.8-0.6,1.7-0.9,2.5
	C42.9,11.8,43.2,12.7,43.5,13.5z M41.8,14c-0.1-0.3-0.2-0.6-0.3-0.9c-0.2,0.4-0.4,0.7-0.6,1.1C41.3,14.1,41.6,14,41.8,14L41.8,14z"
	/>
<path class="st0" d="M22.7,25.6c0.7,0,1.3,0.6,1.3,1.3v21.3c0,0.7-0.6,1.3-1.3,1.3H1.3c-0.7,0-1.3-0.6-1.3-1.3V26.9
	c0-0.7,0.6-1.3,1.3-1.3H22.7z M21.3,28.2H2.7v18.7h18.7L21.3,28.2L21.3,28.2z M18.7,30.9v13.3h-3.3v-10H12v10H5.3V30.9H18.7
	L18.7,30.9z"/>
<path class="st0" d="M34.5,46.5l1.2-2.2c1.1,0.4,2.2,0.6,3.3,0.6c1.1-0.1,2.2-0.4,3.2-1s1.8-1.4,2.5-2.3c0.6-1,1-2,1.2-3.2h2.5
	c-0.1,1.4-0.6,2.8-1.3,4c-0.5,0.8-1.1,1.6-1.8,2.3c-0.4-0.1-0.8-0.2-1.2-0.1s-0.8,0.2-1.2,0.4s-0.7,0.5-0.9,0.8s-0.4,0.7-0.5,1.1
	C39.2,47.6,36.7,47.5,34.5,46.5L34.5,46.5z M32.9,45.5c-2-1.4-3.4-3.5-3.9-5.8c0.6-0.6,1-1.4,1-2.2s-0.4-1.7-1-2.2
	c0.2-0.9,0.6-1.9,1.1-2.7c0.7-1.2,1.7-2.3,2.8-3.1l1.2,2.1c-0.9,0.7-1.7,1.6-2.2,2.6s-0.8,2.2-0.8,3.3s0.3,2.3,0.8,3.3
	s1.2,1.9,2.2,2.6L32.9,45.5L32.9,45.5L32.9,45.5z M34.5,28.5c2.2-1,4.7-1.2,7-0.5c0.2,0.8,0.7,1.5,1.5,2c0.8,0.4,1.7,0.5,2.4,0.3
	c1.8,1.6,2.8,3.9,3.1,6.3H46c-0.1-1.1-0.5-2.2-1.2-3.2c-0.6-1-1.5-1.7-2.5-2.3c-1-0.6-2.1-0.9-3.2-1c-1.1-0.1-2.3,0.1-3.3,0.6
	C35.8,30.7,34.5,28.5,34.5,28.5z M43.5,28.9c-0.2-0.1-0.4-0.3-0.5-0.5c-0.2-0.2-0.3-0.4-0.3-0.6c-0.1-0.2-0.1-0.5-0.1-0.7
	s0.1-0.5,0.2-0.7c0.1-0.2,0.3-0.4,0.5-0.5s0.4-0.3,0.7-0.3c0.2-0.1,0.5-0.1,0.7,0c0.2,0,0.5,0.1,0.7,0.2c0.4,0.2,0.7,0.6,0.8,1.1
	s0.1,1-0.2,1.4c-0.2,0.4-0.7,0.7-1.1,0.9C44.5,29.3,44,29.2,43.5,28.9L43.5,28.9z M28.8,37.5c0,0.5-0.2,1-0.5,1.3
	c-0.4,0.3-0.8,0.5-1.3,0.5s-1-0.2-1.3-0.5c-0.4-0.3-0.5-0.8-0.5-1.3s0.2-1,0.5-1.3c0.4-0.3,0.8-0.5,1.3-0.5s1,0.2,1.3,0.5
	C28.6,36.5,28.8,37,28.8,37.5z M43.5,46c0.2-0.1,0.4-0.2,0.7-0.2c0.2,0,0.5,0,0.7,0c0.2,0.1,0.5,0.2,0.7,0.3
	c0.2,0.2,0.4,0.3,0.5,0.5s0.2,0.4,0.2,0.7c0,0.2,0,0.5-0.1,0.7s-0.2,0.5-0.3,0.7s-0.3,0.3-0.5,0.5c-0.5,0.3-1,0.3-1.5,0.2
	S43,49,42.9,48.5c-0.2-0.4-0.3-0.9-0.2-1.4C42.8,46.7,43.2,46.3,43.5,46L43.5,46z"/>
<path class="st0" d="M12,51c6.6,0,12,5.4,12,12s-5.4,12-12,12S0,69.7,0,63S5.4,51,12,51z M12,53.4c-2.6,0-5,1-6.8,2.8
	C3.4,58,2.4,60.5,2.4,63c0,2.6,1,5,2.8,6.8s4.2,2.8,6.8,2.8s5-1,6.8-2.8s2.8-4.2,2.8-6.8c0-2.6-1-5-2.8-6.8
	C17,54.4,14.6,53.4,12,53.4z M12,57c1.3,0,2.5,0.4,3.5,1.1s1.8,1.8,2.2,3c0.4,1.2,0.4,2.5,0,3.7c-0.4,1.2-1.1,2.3-2.1,3
	c-1,0.8-2.2,1.2-3.5,1.2s-2.5-0.4-3.5-1.1s-1.8-1.8-2.2-3C6,63.7,6,62.4,6.3,61.2c0.3,0.6,0.8,1.1,1.4,1.5s1.3,0.4,2,0.3
	s1.3-0.5,1.7-1s0.6-1.3,0.6-2c0-0.6-0.2-1.1-0.5-1.6s-0.8-0.9-1.3-1.1C10.8,57.1,11.4,57,12,57z"/>
<path class="st0" d="M34.5,69.2h4.6c0.2-1.4,0.8-2.5,2-3.8c0.1-0.1,1-1,1-1.1c0.8-1,1.3-2.2,1.5-3.5c0.2-1.3-0.1-2.6-0.6-3.8
	c-0.6-1.2-1.4-2.2-2.5-2.8s-2.4-1-3.7-1s-2.6,0.4-3.7,1s-2,1.7-2.5,2.8c-0.6,1.2-0.8,2.5-0.6,3.8c0.1,1.3,0.6,2.5,1.5,3.5
	c0.1,0.1,0.9,1,1,1.1C33.6,66.8,34.3,67.8,34.5,69.2L34.5,69.2z M39.1,71.5h-4.6v1.1h4.6V71.5z M29.6,65.8c-1.1-1.3-1.8-3-2-4.7
	c-0.2-1.7,0.1-3.4,0.8-5c0.8-1.5,1.9-2.9,3.4-3.8s3.2-1.4,4.9-1.4s3.4,0.5,4.9,1.4s2.6,2.2,3.4,3.8c0.8,1.5,1,3.3,0.8,5
	c-0.2,1.7-0.9,3.3-2,4.7c-0.7,0.9-2.6,2.3-2.6,4v2.9c0,0.6-0.2,1.2-0.7,1.6c-0.4,0.4-1,0.7-1.6,0.7h-4.6c-0.6,0-1.2-0.2-1.6-0.7
	s-0.7-1-0.7-1.6v-2.9C32.2,68.1,30.3,66.8,29.6,65.8L29.6,65.8z M37.9,60.2h2.9l-5.1,6.8v-4.6h-2.9l5.1-6.9L37.9,60.2L37.9,60.2
	L37.9,60.2z"/>
<path class="st0" d="M9.5,86.9l-2.8-2.3c-1,0.4-2.2,0.4-3.2,0.2c-1.1-0.3-2-0.8-2.6-1.6c-0.6-0.8-0.9-1.7-0.8-2.6s0.6-1.8,1.4-2.4
	c0.8-0.7,1.8-1.1,2.9-1.2s2.2,0.2,3.1,0.7s1.6,1.3,1.9,2.2s0.2,1.8-0.2,2.7l2.8,2.3l7.6-6.4c0.2-0.2,0.5-0.3,0.8-0.4
	s0.6-0.2,0.9-0.2s0.6,0.1,0.9,0.2s0.6,0.2,0.8,0.4l0.9,0.7L9.3,91.3c0.4,0.8,0.5,1.8,0.2,2.7s-1,1.7-1.9,2.2s-2,0.8-3.1,0.7
	c-1.1-0.1-2.2-0.5-2.9-1.2c-0.8-0.7-1.3-1.5-1.4-2.4s0.2-1.8,0.8-2.6c0.6-0.8,1.5-1.3,2.6-1.6c1.1-0.3,2.2-0.2,3.2,0.2L9.5,86.9
	L9.5,86.9L9.5,86.9z M4.9,82.9c0.6,0,1.2-0.2,1.7-0.6c0.4-0.4,0.7-0.9,0.7-1.4s-0.2-1-0.7-1.4c-0.4-0.4-1.1-0.6-1.7-0.6
	s-1.2,0.2-1.7,0.6s-0.7,0.9-0.7,1.4s0.2,1,0.7,1.4S4.3,82.9,4.9,82.9z M4.9,94.9c0.6,0,1.2-0.2,1.7-0.6c0.4-0.4,0.7-0.9,0.7-1.4
	s-0.2-1-0.7-1.4c-0.4-0.4-1.1-0.6-1.7-0.6s-1.2,0.2-1.7,0.6s-0.7,0.9-0.7,1.4s0.2,1,0.7,1.4S4.3,94.9,4.9,94.9z M16.3,88.3l7.6,6.4
	l-0.8,0.7c-0.2,0.2-0.5,0.3-0.8,0.4S21.7,96,21.4,96s-0.6-0.1-0.9-0.2s-0.6-0.2-0.8-0.4l-5.9-5L16.3,88.3L16.3,88.3L16.3,88.3z
	 M16.9,85.9h2.4v2h-2.4V85.9z M21.7,85.9h2.4v2h-2.4V85.9z M4.9,85.9h2.4v2H4.9V85.9z M0.1,85.9h2.4v2H0.1V85.9z"/>
</svg>
