<?xml version="1.0" encoding="UTF-8"?><svg id="Calque_1" xmlns="http://www.w3.org/2000/svg" viewBox="0 0 2500 829.71"><defs><style>.cls-1{fill:#0060a8;}.cls-2{fill:#fff;}.cls-3{fill:#231f20;}</style></defs><path class="cls-2" d="M1231.73,757.45c45.9,44.57,108.49,72.13,177.52,72.13l1090.74,.13-235.57-702.77C2232.26,52.28,2156.77,0,2066.12,0s-166.9,53.99-197.87,128.34l-78.53,228.93-.31-345.44-380.91-.19c-68.85,0-130.74,26.87-176.32,71.31l.13-71h-390.01c-72.64,0-138.71,30.97-184.92,79.66V11.63l-367.58,.32C131.12,11.82,.95,135.86,.76,299.86c0,75.92,33.18,144.78,82.12,195.8l-82.87-.13v334.06l370.35-.07c104.06-.12,207.17-62.91,243.02-138.13l1.07-3.09c41.41,83.63,127.82,141.29,227.84,141.29l389.44-.07v-72.07"/><g><path class="cls-1" d="M57.22,772.42l312.31-.32c127.77,0,231.33-103.23,231.33-230.43s-103.55-230.69-231.33-230.69l-81.11,.44c-6.39,0-11.57-5.24-11.57-11.69s5.18-11.7,11.57-11.7l311.74,.07,.12-97.8H288.35c-60.31,0-109.37,48.99-109.37,109.18s49.06,109.05,109.37,109.05l81.49,1.08c73.21,0,132.45,59.04,132.45,131.88s-59.23,132.07-132.45,132.07H57.34l-.13,98.87Z"/><path class="cls-1" d="M57.34,650.6H369.84c60.5,0,109.43-48.8,109.43-109.12s-48.93-108.99-109.43-108.99l-81.49-.88c-73.08,0-132.38-59.11-132.38-132.13s59.3-131.94,132.38-131.94l311.93-.07-.12-98.17H288.42c-127.64,0-231.32,103.12-231.32,230.44s103.68,230.5,231.32,230.5l80.67,.12c6.13,0,11.32,5,11.32,11.32s-5.18,11.19-11.32,11.19l-311.87,.25,.12,97.48Zm785.64,23.58c-54.18,0-98.57-43.18-98.57-98.32V263.88c0-53.04,44.38-96.67,98.57-96.67l333.36,.06V69.29h-333.36c-108.48,0-196.36,87.56-196.36,195.67v310.92c0,108.12,87.87,195.8,196.36,195.8l331.97,.13-.07-97.74-331.9,.12Z"/><path class="cls-1" d="M768.32,264.96c0-41.34,33.26-74.85,74.67-74.85h333.36v98.12h-287.21c-23.01,0-23.33,22.82-23.33,22.82h239.61v97.68h-337.22l.12-143.77Zm74.67,385.46c-41.28,0-74.79-33.32-74.79-74.54v-143.89h337.22v97.87h-239.61c.32,23.01,23.33,23.13,23.33,23.13h285.82l-.07,97.3-331.89,.13Zm566.97,23.52c-53.99,0-98.12-44-98.12-98.07V264.95c0-54.12,43.81-97.74,97.86-97.74h322.87V69.29h-323.62c-108.43,0-196.31,87.56-196.31,195.67v310.92c0,108.12,88.63,195.8,197.06,195.8l322.87,.13V311.05h-277.47v97.68h179.42v265.21h-224.56Z"/><path class="cls-1" d="M1334.84,575.87c0,41.43,33.51,75.12,74.85,75.12h201.68v-219.12h-156.03v98h57.91l.18,23.01h-57.65c-12.58,0-22.88-10.42-22.88-23.01l-.52-218.87s-.07-22.76,23.14-23.32h277.16l-.12-97.62-322.87,.07c-41.34,0-74.85,33.51-74.85,74.85v310.91M2035.96,188.65c5.83-16.65,24.06-25.43,40.71-19.59,9.17,3.21,16.38,10.42,19.59,19.59l156.73,463.03h-229.5l.25-108.92h76.69l-34.53-102.61-112.47,331.58h-115.69l198.2-583.08Z"/><path class="cls-1" d="M2284.6,673.93h-260.72v97.79h396.77l-206.35-610.52c-18.08-59.55-77.69-103.36-148.26-103.36s-130.1,43.62-148.32,103.12l-208.24,610.77h103.87l202.18-593.7c8.46-20.31,28.32-33.53,50.33-33.51,21.96,.03,41.79,13.17,50.38,33.38l168.35,496.03Z"/></g><path class="cls-3" d="M2345.87,146.99c18.32,.04,35.91-7.22,48.87-20.17,13.02-13.08,20.29-30.34,20.29-48.8s-7.27-35.53-20.29-48.62c-12.99-12.91-30.56-20.14-48.87-20.1-37.99,0-69.03,30.79-69.03,68.72,0,18.46,7.21,35.72,20.35,48.8,12.89,12.94,30.42,20.2,48.68,20.16m-59.29-68.98c0-15.74,6.07-30.66,17.37-41.85,11.12-11.1,26.21-17.31,41.92-17.26,15.93,0,30.85,6.08,42.11,17.26,11.14,11.07,17.4,26.14,17.39,41.85,0,32.68-26.68,59.23-59.5,59.23-15.75,0-30.67-6.13-41.92-17.33-11.32-11.18-17.37-26.04-17.37-41.91Z"/><path class="cls-3" d="M2328.17,83.83v32.49h-9.99V39.96h28.38c10.69,.12,16.95,.12,22.89,4.61,5.75,4.24,8.16,10.63,8.16,17.71,0,17.83-14.53,20.17-18.22,20.93l21.5,33.12h-12.08l-20.92-32.49h-19.73Zm0-8.41h20.29c3.23,0,6.27,0,9.3-.76,7.08-1.71,9.61-6.77,9.61-12.33,0-2.03-.19-7.14-4.56-10.68-3.99-3.35-9.04-3.23-14.92-3.23h-19.73v26.99Z"/></svg>