<?xml version="1.0" encoding="utf-8"?><svg version="1.1" id="Calque_1" xmlns="http://www.w3.org/2000/svg" xmlns:xlink="http://www.w3.org/1999/xlink" x="0px" y="0px" viewBox="0 0 2500 363.8" style="enable-background:new 0 0 2500 363.8;" xml:space="preserve"><style type="text/css">	.st0{fill:#FFFFFF;}</style><path class="st0" d="M0,0v155.9h152.8V0H0z M98.9,101H53.8v-46h45.1V101z M322.9,205.8h69c26,0,38.5,11.5,38.5,32.5c0,27.5-20,34-43,34h-64.5L322.9,205.8L322.9,205.8z M213,357.3h202.4c63,0,125-37,125-108.5c0-52.5-30-77.9-62-89c26.5-14.5,43.9-34,43.9-69.9S502.4,0.4,408.4,0.4H213L213,357.3L213,357.3z M322.9,85.3h58c22.5,0,37.5,6.5,37.5,24.5c0,23-14.5,29.5-37.5,29.5h-58V85.3z M645.7,198.3c4.5-28,21.5-43.5,51-43.5c25.5,0,43.4,19.5,43.4,43.5L645.7,198.3L645.7,198.3z M835.2,249.8c0-100.9-44.5-158.4-147.5-158.4c-82,0-137,61.5-137,137c0,86.4,62.5,135.4,145.5,135.4c58.9,0,113.5-26,133.4-82h-92.4c-8,12.5-25.5,18.5-41.5,18.5c-30.9,0-47.9-21-50.4-50.5L835.2,249.8L835.2,249.8L835.2,249.8z M959.2,18.8h-99v79h-44v61h44v124c0,71,46.5,77.4,88.5,77.4c21,0,43.5-3,63.5-3v-75c-7.5,1.1-15,1.5-22.5,1.5c-25,0-30.5-10.5-30.5-34.5v-90.5h53V97.9h-53L959.2,18.8L959.2,18.8L959.2,18.8z M1028.7,357.2h99v-137c0-41.5,22.5-50,39.5-50c29,0,32.5,21,32.5,51v136h99v-178c0-59.5-42.6-88-89.1-88c-41.9,0-64,14.5-81,34.5h-1V0.4h-98.9L1028.7,357.2L1028.7,357.2z M1406.4,198.3c4.5-28,21.5-43.5,51-43.5c25.5,0,43.4,19.5,43.4,43.5L1406.4,198.3L1406.4,198.3L1406.4,198.3z M1595.8,249.8c0-100.9-44.4-158.4-147.5-158.4c-82,0-137,61.5-137,137c0,86.4,62.5,135.4,145.5,135.4c58.9,0,113.5-30.8,133.4-86.8h-92.4c-8,12.5-25.5,23.2-41.5,23.2c-30.9,0-48-21-50.4-50.5L1595.8,249.8L1595.8,249.8L1595.8,249.8z M1844.8,173.3c-2.4-66.4-69.9-82-125.9-82c-52,0-122.5,17-122.5,82.5c0,44.5,30.5,68.5,106,81.5c46,8,54.5,12.5,54.5,27.5s-20.5,20-33.4,20c-12,0-21.5-3.1-26.5-7.5c-7.5-6.5-11.5-9.2-12-18.2h-94.4c1.4,67,68.5,86.8,129.4,86.8s132-19.5,132-91.5c0-42.5-29-62-62-72.5c-33-11-70.4-13-86.9-20c-5.5-2.5-11.5-6-11.5-13.5c0-17,16-20,30-20c8,0,16,2.5,21.9,7.5c6.6,4.5,11,11,11.6,19.5L1844.8,173.3L1844.8,173.3L1844.8,173.3z M2136.7,0.4h-98.9v125.9h-1c-15-22-41.5-35-71-35c-87,0-110.5,74-110.5,134.9c0,65,35.5,137.5,109,137.5c48.5,0,63.5-18.5,76-35h1v28.5h95.4L2136.7,0.4L2136.7,0.4L2136.7,0.4z M2041.2,227.3c0,31-8,64.5-43.4,64.5s-43.5-33.5-43.5-64.5s8-64,43.5-64S2041.2,196.8,2041.2,227.3 M2323.5,264.8c-1.5,27-19,40.5-41.5,40.5c-17.9,0-31-12-31-23.9c0-17.5,11.5-23.1,33.5-28c13.6-3.1,27-6.5,39-12.5L2323.5,264.8L2323.5,264.8L2323.5,264.8z M2418.5,192.8c0-50,0.9-101.5-123-101.5c-61.5,0-130.4,12-133.4,85h91.9c0.5-11,6.6-26.5,37-26.5c16.1,0,32.5,6.5,32.5,24c0,16.5-13.5,20.5-27,23c-50.5,9.5-146.4,6.5-146.4,88.5c0,54.5,41.4,78.4,91.4,78.4c32,0,62.5-7,83.5-31h1c-0.5,7,1,17.5,3.5,24.5h101c-11-16.5-12-38.5-12-58L2418.5,192.8L2418.5,192.8L2418.5,192.8z M2447.4,138.2h-7.5v-30.6h-11.5v-6.5h30.2v6.5h-11.1L2447.4,138.2L2447.4,138.2L2447.4,138.2z M2470,138.2h-7.1v-37.1h11.8l6.7,25.6l6.8-25.6h11.8v37.1h-7.2v-29.6l-8.1,29.6h-6.8l-8-29.6L2470,138.2L2470,138.2L2470,138.2z"/></svg>