<?xml version="1.0" encoding="UTF-8"?><svg id="Calque_1" xmlns="http://www.w3.org/2000/svg" viewBox="0 0 2176.46 1999.51"><defs><style>.cls-1{fill:#fff;}</style></defs><path class="cls-1" d="M1627.53,989.21c-101.43,230.23-310.16,350.73-533.09,347.94-427.63-21.21-552.02-515.05-266.24-693.34l12.58,12.57c-4.88,6.4-21.46,19.85-48.19,72.14-31.13,63.54-40.62,126.86-36.94,166.47,22.25,345.21,505.21,415.42,671.56,74.17C1638.96,501.06,1077.69,25.65,579.37,388.99l-11.51-11.5c131.07-205.66,387.19-297.71,631.8-236.21,374.06,93.51,574.86,483.68,427.87,847.92h0Zm-399.81-7.41c-34.62,49.85-92.28,82.49-157.57,82.49-105.91,0-191.75-85.85-191.75-191.75s78.43-184.11,177.84-191.24c61.9-2.49,119.59,30.97,147.06,85.21,29.61,58.49,18.78,130.62-27.35,179.26l51.77,36.04Zm-668.97-126.64c-9.24,76.15-3.49,99.94-3.51,108.99l-16.92,6.15c-6.4-12.52-22.64-56.65-29.8-115.95-18.31-226.41,135.97-430.44,370.81-468.42,215.38-31.66,421.32,102.11,469.55,289.35l-16.96,6.18c-5.04-5.58-14.04-20.73-46.59-53.73-259.75-260.96-668-141.27-726.59,227.43h0Zm1231.92-125.56C1775.3-18.64,781.47-297.49,398.85,403.67c16.91,12.23,40.3,28.79,57.21,41.02-29.31,61.56-48.85,124.27-59.55,186.78-7.55,41.68-11.34,83.95-11.33,126.3,0,388.28,314.76,703.05,703.05,703.05s703.05-314.76,703.05-703.05c0-9.43-.24-18.81-.61-28.16m385.79,944.76h-112.21v318.27h-87.01v-318.27h-112.77v-82.43h311.99v82.43Zm-532.58,0v92.74h170.02v66.4h-170.02v159.13h-87v-400.71h274.2v82.43h-187.2Zm-210.63,117.92c0-72.12-45.79-124.79-115.64-124.79-40.64,0-70.98,15.46-89.3,35.49l13.74,13.74c-21.19,17.74-40.08,42.36-40.08,86.44,0,60.68,42.94,113.91,115.64,113.91s115.64-52.65,115.64-124.79h0Zm88.16,0c0,117.93-84.73,207.23-203.79,207.23s-203.79-87.58-203.79-193.49c0-68.7,26.9-118.5,66.4-151.13l-13.73-13.74c30.34-31.49,85.86-56.1,151.12-56.1,119.06,0,203.79,90.44,203.79,207.22Zm-535.95-38.35c68.69,24.05,104.18,54.96,104.18,116.78,0,83.01-63.54,128.8-138.53,128.8-69.27,0-122.51-30.91-144.83-88.16l69.26-51.51c12.6,36.06,45.22,58.39,77.85,58.39,28.62,0,49.23-15.46,49.23-41.22,0-24.04-15.46-38.92-72.71-59.53-61.82-22.33-107.62-53.24-107.62-119.64s53.24-112.77,130.52-112.77c61.25,0,108.77,24.61,131.09,73.27l-69.28,48.08c-13.16-29.77-33.76-46.36-65.25-46.36-26.33,0-45.8,14.31-45.8,34.92,0,23.46,21.75,37.78,81.86,58.96h0Zm-297.29-162h87.01v400.71h-87.01v-400.71Zm-179.12,324c37.2,0,58.39-17.17,58.39-50.37s-21.18-50.37-58.39-50.37h-48.08v100.74h48.08Zm-48.08-247.29v84.72h45.8c26.9,0,45.22-15.46,45.22-42.36s-18.32-42.36-45.22-42.36h-45.8Zm193.49,204.94c0,69.26-54.39,119.06-141.96,119.06h-138.54v-400.71h133.39c77.27,0,128.23,37.2,128.23,96.74,0,45.23-21.18,72.7-52.67,85.87,42.36,16.03,71.56,45.23,71.56,99.04h0Zm-323.57-281.64v240.43c0,95.6-58.39,167.15-165.44,167.15S0,1927.96,0,1832.35v-240.42H87.01v233.56c0,58.39,27.48,91.59,78.43,91.59s78.42-33.2,78.42-91.59v-233.56h87.02Z"/></svg>