<?xml version="1.0" encoding="UTF-8"?><svg id="Calque_1" xmlns="http://www.w3.org/2000/svg" viewBox="0 0 2500 469.4"><defs><style>.cls-1{fill:none;}.cls-2,.cls-3{fill:#2d4f9e;}.cls-3,.cls-4{fill-rule:evenodd;}.cls-4{fill:#f2ca30;}</style></defs><path class="cls-1" d="M0,0H2500V469.4H0V0Z"/><path class="cls-2" d="M2357.6,138.8h0c13.2,0,25.8-5.2,35.1-14.6,9.3-9.3,14.5-21.9,14.5-35v-.1c0-27.4-22.1-49.6-49.5-49.6h-.2c-13.2,0-25.8,5.2-35.1,14.5s-14.5,21.9-14.5,35v.1c0,13.2,5.2,25.8,14.5,35.1h0c9.4,9.3,22,14.5,35.2,14.6h0Zm0,7.6h-.1c-15.2,0-29.7-6-40.4-16.8h0c-10.8-10.7-16.8-25.3-16.8-40.5v-.1c0-15.8,6.4-30,16.7-40.4,10.7-10.8,25.3-16.8,40.5-16.8h.1c15.2,0,29.7,6,40.4,16.8,10.8,10.7,16.8,25.3,16.8,40.5v.1c0,15.2-6,29.7-16.8,40.4h0c-10.6,10.7-25.2,16.8-40.4,16.8h0Z"/><path class="cls-3" d="M2328,54.7h36.1c19,0,23.4,16.9,23.4,23.1,0,7.9-6.4,17-13.4,19.4l19.4,25.6h-16.1l-16.1-23.6h-18.8v23.6h-14.5V54.7h0Zm35.1,31.5c3.9,0,11.1-1.3,11.1-8.3,0-6.3-1.5-9.4-10-9.4h-21.5v17.7h20.4Zm-1848.2,43.1l-101.5,107.2-67-45.9s22-21.1,1.9-36.4c-15.7-11.9-59.7,13.4-57.8,63.2,2.2,57.4,37.7,89.9,76.9,89.9,36.4,0,46-29.4,46-29.4h81.5v67.6L609.6,43.2h131.1l105.3,271.8s7.7,14.3,15.3,18.2l.4-183.3c0-5-.7-10.5-3.8-14.1-5.1-5.9-13.9-8.4-13.9-8.4V43.2h183.7c95.3,0,119.8,25.9,147.4,75.6,38.1-51.4,90.7-85.2,165.6-85.2s131.6,28.4,162.7,75.6c43.5-52,113.5-76.1,177.5-76.1,78.7,0,144.5,38.1,178.5,97.1V43.2h177.1l18.6,47.3,13.9-47.3h182.8V125.5s-10.5,2.9-13.4,7.6c-2.9,4.7-2.4,19.7-2.4,19.7l25.5,162.7c1.1,5.3,2.9,10.8,7.5,14.9,5.3,4.7,12.4,3.8,12.4,3.8v93.8h-183.7v-71h-105.3v71h-172.8v-46.2s-63.1,55.5-144.5,55.5c-104.1,0-173.7-76.6-173.7-76.6v67h-122.4c-109,0-202.6-59.7-228.7-168.4-12.4,11.8-67,50.9-132.6,65.6-5.1,1.1-7.6,3-7.6,8.6,0,10.1,21.5,13.7,21.5,13.7v80.6H359.9c-124.4,0-224.4-85.2-224.4-193.3S213.4,34.5,342.6,34.5s172.3,94.8,172.3,94.8h0Z"/><path class="cls-4" d="M466.5,131l-54.1,56.7s-2.9,1.4-5.3,1.4-5.8-2.4-5.8-2.4l-6.7-5.7s-1.9-.5-1.9-2.4,5.3-6.7,5.3-15.8-1.9-46.9-60.3-46.9-84.2,54.5-84.2,99.5,27.7,127.3,118.7,127.3c52.9,0,64.1-29.7,64.1-29.7h18.2v77.5h-99.5c-118.7,0-184.7-92.8-184.7-159.8,0-102.7,89.3-159.7,170.4-159.7s125.8,60,125.8,60h0Zm167.5-51.5h81.8l99.5,260.3c2.8,7.2,7.6,13.9,12.4,19.6,4.8,5.8,16.2,9.6,16.2,9.6v22.5h-119.9v-23s7.6,1,11.5-5.7c3.8-6.7,3.8-12,1-18.6-2.9-6.7-23-59.8-23-59.8h-98.1s-20.1,53.6-22,58.4-1.9,12.5,0,17.2c3.2,8,14.4,9.1,14.4,9.1v22.5h-96.2v-22.5s8.8-3,15.3-9.6c4.2-4.2,7.5-9.2,9.5-14.9l97.6-265.1h0Zm-2.4,156h63.2l-32.5-90.9-30.7,90.9h0Zm250.7-156h153.1c56.5,0,112.9,20.1,112.9,85.2s-41.2,88.1-76.6,104.3c-40.9,18.8-94.7,33.5-94.7,33.5v49.8s.5,3.4,5.2,9.1c4.8,5.8,10.1,7.2,10.1,7.2v23h-111v-22.5s6.7-1.4,11.5-6.2c4.8-4.8,5.8-10.5,5.8-10.5V127.4s.5-9.6-3.4-13.4c-3.8-3.8-12.9-9.1-12.9-9.1v-25.4h0Zm95.7,46.9v133s89.9-37.3,89.9-90c.1-65-89.9-43-89.9-43h0Zm502,5.1l-54.1,56.7s-2.9,1.4-5.3,1.4-5.8-2.4-5.8-2.4l-6.7-5.8s-1.9-.4-1.9-2.4,5.3-6.7,5.3-15.8-1.9-46.9-60.3-46.9-84.2,54.5-84.2,99.5,27.8,127.3,118.7,127.3c52.9,0,64.1-29.7,64.1-29.7h18.2v77.5h-99.6c-118.7,0-184.7-92.8-184.7-159.8,0-102.7,89.3-159.7,170.4-159.7s125.9,60.2,125.9,60.1h0Zm193.8,269c-103.4,0-177.7-75.5-177.7-167.3s76.2-163.1,177.7-163.1,177.6,71.2,177.6,163.1-74.3,167.3-177.6,167.3h0Zm-91.9-165.9c0,91.9,46.9,114.8,91.9,114.8s92.8-28.7,92.8-114.8-53.6-114.8-92.8-114.8-91.9,22.9-91.9,114.8h0Zm315.8-154.8h113.9l41.2,127.1,44-127.3h119.1v18.6s-7.9,3.4-11.4,7.7c-4.3,5.3-4.3,9.1-3.4,16.8,.9,7.6,31.6,215.3,32.5,223,1,7.7,1.9,12,3.8,17.2,1.9,5.2,11,9.5,11,9.5v19.3h-114.4v-20.7s10-1.4,13.4-6.2c3.4-4.8,4.8-7.6,3.8-15.3-1-7.6-28.2-181.8-28.2-181.8l-49.8,154.1h-60.3l-49.3-144.5-24.9,170.4s-1,10.2,2.9,15.8c5.3,7.7,14.9,7.7,14.9,7.7v20.6h-99.1v-22s7.9-1.2,13.7-7.9c5.7-6.7,6.7-15.3,6.7-15.3l36.2-224.6s2.2-8.4-.3-12.2c-2.5-4-16-7.4-16-7.4v-22.6h0Z"/></svg>